<svg viewBox="0 0 200 200" xmlns="http://www.w3.org/2000/svg"><defs><filter id="_r_o_-blur-sm" x="-20%" y="-20%" width="140%" height="140%"><feGaussianBlur stdDeviation="3"/></filter><filter id="_r_o_-blur-lg" x="-50%" y="-50%" width="200%" height="200%"><feGaussianBlur stdDeviation="16"/></filter><radialGradient id="_r_o_-body-grad" cx="42%" cy="38%" r="62%" fx="35%" fy="30%"><stop offset="0%" stop-color="#bbf7d0"/><stop offset="35%" stop-color="#16a34a"/><stop offset="75%" stop-color="#15803d"/><stop offset="100%" stop-color="#052e16"/></radialGradient><linearGradient id="_r_o_-core-grad" x1="0%" y1="0%" x2="100%" y2="100%"><stop offset="0%" stop-color="#bbf7d0" stop-opacity="0.9"/><stop offset="60%" stop-color="#16a34a" stop-opacity="0.75"/><stop offset="100%" stop-color="#15803d" stop-opacity="0.85"/></linearGradient><radialGradient id="_r_o_-inner-glow" cx="50%" cy="50%" r="50%"><stop offset="0%" stop-color="#bbf7d0" stop-opacity="0.9"/><stop offset="50%" stop-color="#16a34a" stop-opacity="0.4"/><stop offset="100%" stop-color="#15803d" stop-opacity="0"/></radialGradient><radialGradient id="_r_o_-caustic-grad" cx="50%" cy="50%" r="50%"><stop offset="0%" stop-color="#ffffff" stop-opacity="0.85"/><stop offset="50%" stop-color="#bbf7d0" stop-opacity="0.5"/><stop offset="100%" stop-color="#16a34a" stop-opacity="0"/></radialGradient><linearGradient id="gold-metal-grad" x1="0%" y1="0%" x2="100%" y2="100%"><stop offset="0%" stop-color="#fef08a"/><stop offset="25%" stop-color="#d97706"/><stop offset="50%" stop-color="#fde047"/><stop offset="75%" stop-color="#b45309"/><stop offset="100%" stop-color="#78350f"/></linearGradient><linearGradient id="silver-metal-grad" x1="0%" y1="0%" x2="100%" y2="100%"><stop offset="0%" stop-color="#f8fafc"/><stop offset="30%" stop-color="#94a3b8"/><stop offset="60%" stop-color="#e2e8f0"/><stop offset="100%" stop-color="#475569"/></linearGradient></defs><circle cx="100" cy="114" r="75" fill="rgba(22, 163, 74, 0.5)" filter="url(#_r_o_-blur-lg)" opacity="0.68"/><ellipse cx="100" cy="188" rx="55" ry="8" fill="rgba(0, 0, 0, 0.4)" filter="url(#_r_o_-blur-sm)"/><g id="_r_o_-amber-body"><g><circle cx="100" cy="100" r="80" fill="url(#_r_o_-body-grad)" stroke="#052e16" stroke-width="5"/><circle cx="100" cy="100" r="68" fill="none" stroke="#fef08a" stroke-width="1.5" stroke-dasharray="4 2" opacity="0.8"/><circle cx="100" cy="100" r="62" fill="url(#_r_o_-core-grad)" stroke="#052e16" stroke-width="2"/><circle cx="174" cy="100" r="2.5" fill="#fde047" opacity="0.9"/><circle cx="164.08587988004848" cy="137" r="2.5" fill="#fde047" opacity="0.9"/><circle cx="137" cy="164.08587988004845" r="2.5" fill="#fde047" opacity="0.9"/><circle cx="100" cy="174" r="2.5" fill="#fde047" opacity="0.9"/><circle cx="63.000000000000014" cy="164.08587988004848" r="2.5" fill="#fde047" opacity="0.9"/><circle cx="35.914120119951534" cy="137" r="2.5" fill="#fde047" opacity="0.9"/><circle cx="26" cy="100.00000000000001" r="2.5" fill="#fde047" opacity="0.9"/><circle cx="35.91412011995155" cy="62.99999999999999" r="2.5" fill="#fde047" opacity="0.9"/><circle cx="62.999999999999964" cy="35.91412011995156" r="2.5" fill="#fde047" opacity="0.9"/><circle cx="99.99999999999999" cy="26" r="2.5" fill="#fde047" opacity="0.9"/><circle cx="137" cy="35.91412011995155" r="2.5" fill="#fde047" opacity="0.9"/><circle cx="164.08587988004842" cy="62.999999999999964" r="2.5" fill="#fde047" opacity="0.9"/></g></g><g id="_r_o_-dino-footprint" transform="translate(100, 102) scale(0.722) rotate(5)" opacity="0.9" style="mix-blend-mode: multiply;"><path d="M -6 -8 C -7 -25, -5 -46, 0 -62 C 5 -46, 7 -25, 6 -8 Z" fill="#02180b"/><path d="M -10 -4 C -24 -16, -42 -28, -54 -36 C -46 -22, -32 -8, -16 6 Z" fill="#02180b"/><path d="M 10 -4 C 24 -16, 42 -28, 54 -36 C 46 -22, 32 -8, 16 6 Z" fill="#02180b"/><ellipse cx="0" cy="18" rx="16" ry="20" fill="#02180b"/><path d="M -12 6 C -8 -2, 8 -2, 12 6 L 16 22 C 12 36, -12 36, -16 22 Z" fill="#02180b"/><ellipse cx="0" cy="18" rx="11" ry="14" fill="#15803d" opacity="0.6"/></g><g id="_r_o_-highlights" style="pointer-events: none;"><ellipse cx="96" cy="106" rx="52" ry="52" fill="url(#_r_o_-inner-glow)" opacity="0.68"/><g opacity="0.52" style="mix-blend-mode: screen;"><path d="M 70 82 Q 95 95 125 80 Q 140 100 130 125 Q 105 110 80 130 Q 65 105 70 82 Z" fill="url(#_r_o_-caustic-grad)"/><path d="M 85 95 Q 105 105 120 95 Q 115 120 95 125 Q 80 115 85 95 Z" fill="#ffffff" opacity="0.3"/></g><path d="M 70 48 C 82 44, 102 46, 114 54 C 112 59, 88 56, 74 62 C 68 56, 68 51, 70 48 Z" fill="#ffffff" opacity="0.75"/><ellipse cx="64" cy="74" rx="4" ry="12" transform="rotate(-30 64 74)" fill="#ffffff" opacity="0.6"/><circle cx="58" cy="94" r="2.5" fill="#ffffff" opacity="0.5"/><path d="M 134 162 C 146 148, 154 130, 154 116" stroke="#dcfce7" stroke-width="2" stroke-linecap="round" opacity="0.4" fill="none"/></g></svg>
